<mxfile host="Electron" modified="2023-09-04T08:39:47.233Z" agent="Mozilla/5.0 (X11; Linux x86_64) AppleWebKit/537.36 (KHTML, like Gecko) draw.io/21.3.7 Chrome/112.0.5615.204 Electron/24.5.0 Safari/537.36" etag="djYHyMaOyJ75BL6IX1PU" version="21.3.7" type="device" pages="2">
  <diagram name="Page-1" id="g6t1N2SXA_aqNi8NFgTg">
    <mxGraphModel dx="2899" dy="1204" grid="1" gridSize="10" guides="1" tooltips="1" connect="1" arrows="1" fold="1" page="1" pageScale="1" pageWidth="850" pageHeight="1100" math="0" shadow="0">
      <root>
        <mxCell id="0" />
        <mxCell id="1" parent="0" />
        <mxCell id="nBjYFMRs9gw0fjaSKA7M-2" value="" style="rounded=0;whiteSpace=wrap;html=1;" vertex="1" parent="1">
          <mxGeometry x="40" y="160" width="1030" height="760" as="geometry" />
        </mxCell>
        <mxCell id="nBjYFMRs9gw0fjaSKA7M-3" value="" style="rounded=0;whiteSpace=wrap;html=1;" vertex="1" parent="1">
          <mxGeometry x="240" y="160" width="830" height="380" as="geometry" />
        </mxCell>
        <mxCell id="nBjYFMRs9gw0fjaSKA7M-4" value="" style="rounded=0;whiteSpace=wrap;html=1;" vertex="1" parent="1">
          <mxGeometry x="240" y="540" width="830" height="380" as="geometry" />
        </mxCell>
        <mxCell id="nBjYFMRs9gw0fjaSKA7M-5" value="" style="rounded=0;whiteSpace=wrap;html=1;" vertex="1" parent="1">
          <mxGeometry x="40" y="870" width="200" height="50" as="geometry" />
        </mxCell>
        <mxCell id="nBjYFMRs9gw0fjaSKA7M-36" style="edgeStyle=orthogonalEdgeStyle;rounded=0;orthogonalLoop=1;jettySize=auto;html=1;entryX=0;entryY=0.5;entryDx=0;entryDy=0;dashed=1;strokeWidth=2;" edge="1" parent="1" source="nBjYFMRs9gw0fjaSKA7M-6" target="nBjYFMRs9gw0fjaSKA7M-9">
          <mxGeometry relative="1" as="geometry" />
        </mxCell>
        <mxCell id="nBjYFMRs9gw0fjaSKA7M-6" value="String[ ]&amp;nbsp; args =&amp;nbsp;" style="rounded=0;whiteSpace=wrap;html=1;fontSize=21;" vertex="1" parent="1">
          <mxGeometry x="40" y="820" width="200" height="50" as="geometry" />
        </mxCell>
        <mxCell id="nBjYFMRs9gw0fjaSKA7M-37" style="edgeStyle=orthogonalEdgeStyle;rounded=0;orthogonalLoop=1;jettySize=auto;html=1;entryX=0;entryY=0.5;entryDx=0;entryDy=0;dashed=1;strokeWidth=2;" edge="1" parent="1" source="nBjYFMRs9gw0fjaSKA7M-7" target="nBjYFMRs9gw0fjaSKA7M-13">
          <mxGeometry relative="1" as="geometry">
            <Array as="points">
              <mxPoint x="300" y="795" />
              <mxPoint x="300" y="205" />
            </Array>
          </mxGeometry>
        </mxCell>
        <mxCell id="nBjYFMRs9gw0fjaSKA7M-7" value="RCP =&amp;nbsp;0XAB987" style="rounded=0;whiteSpace=wrap;html=1;fontSize=21;" vertex="1" parent="1">
          <mxGeometry x="40" y="770" width="200" height="50" as="geometry" />
        </mxCell>
        <mxCell id="nBjYFMRs9gw0fjaSKA7M-8" value="" style="rounded=0;whiteSpace=wrap;html=1;" vertex="1" parent="1">
          <mxGeometry x="440" y="805" width="30" height="60" as="geometry" />
        </mxCell>
        <mxCell id="nBjYFMRs9gw0fjaSKA7M-9" value="0XAC67" style="rounded=0;whiteSpace=wrap;html=1;fillColor=#fff2cc;strokeColor=#d6b656;fontSize=20;fontStyle=1" vertex="1" parent="1">
          <mxGeometry x="440" y="775" width="100" height="30" as="geometry" />
        </mxCell>
        <mxCell id="nBjYFMRs9gw0fjaSKA7M-39" style="edgeStyle=orthogonalEdgeStyle;rounded=0;orthogonalLoop=1;jettySize=auto;html=1;entryX=0.5;entryY=0;entryDx=0;entryDy=0;" edge="1" parent="1" source="nBjYFMRs9gw0fjaSKA7M-10" target="nBjYFMRs9gw0fjaSKA7M-13">
          <mxGeometry relative="1" as="geometry">
            <Array as="points">
              <mxPoint x="1260" y="70" />
              <mxPoint x="510" y="70" />
            </Array>
          </mxGeometry>
        </mxCell>
        <mxCell id="nBjYFMRs9gw0fjaSKA7M-10" value="Demo4.class" style="rounded=0;whiteSpace=wrap;html=1;fontSize=23;" vertex="1" parent="1">
          <mxGeometry x="1190" y="680" width="170" height="170" as="geometry" />
        </mxCell>
        <mxCell id="nBjYFMRs9gw0fjaSKA7M-11" value="" style="rounded=0;whiteSpace=wrap;html=1;" vertex="1" parent="1">
          <mxGeometry x="450" y="230" width="220" height="290" as="geometry" />
        </mxCell>
        <mxCell id="nBjYFMRs9gw0fjaSKA7M-13" value="0XAB987" style="rounded=0;whiteSpace=wrap;html=1;fontSize=21;fontStyle=1" vertex="1" parent="1">
          <mxGeometry x="450" y="180" width="120" height="50" as="geometry" />
        </mxCell>
        <mxCell id="nBjYFMRs9gw0fjaSKA7M-14" value="static : int x =10" style="rounded=0;whiteSpace=wrap;html=1;fontSize=22;" vertex="1" parent="1">
          <mxGeometry x="450" y="230" width="220" height="50" as="geometry" />
        </mxCell>
        <mxCell id="nBjYFMRs9gw0fjaSKA7M-15" value="instance : void Print() { }" style="rounded=0;whiteSpace=wrap;html=1;fontSize=19;" vertex="1" parent="1">
          <mxGeometry x="450" y="280" width="220" height="50" as="geometry" />
        </mxCell>
        <mxCell id="nBjYFMRs9gw0fjaSKA7M-16" value="Demo4( ){ }" style="rounded=0;whiteSpace=wrap;html=1;fontSize=22;" vertex="1" parent="1">
          <mxGeometry x="450" y="330" width="220" height="50" as="geometry" />
        </mxCell>
        <mxCell id="nBjYFMRs9gw0fjaSKA7M-17" value="PSVM" style="ellipse;whiteSpace=wrap;html=1;fontSize=22;" vertex="1" parent="1">
          <mxGeometry x="495" y="390" width="120" height="80" as="geometry" />
        </mxCell>
        <mxCell id="nBjYFMRs9gw0fjaSKA7M-42" style="edgeStyle=orthogonalEdgeStyle;rounded=0;orthogonalLoop=1;jettySize=auto;html=1;entryX=1;entryY=0.5;entryDx=0;entryDy=0;dashed=1;strokeWidth=2;" edge="1" parent="1" source="nBjYFMRs9gw0fjaSKA7M-30" target="nBjYFMRs9gw0fjaSKA7M-40">
          <mxGeometry relative="1" as="geometry">
            <Array as="points">
              <mxPoint x="760" y="500" />
            </Array>
          </mxGeometry>
        </mxCell>
        <mxCell id="nBjYFMRs9gw0fjaSKA7M-30" value="0XAB013" style="rounded=0;whiteSpace=wrap;html=1;fontSize=21;fontStyle=1" vertex="1" parent="1">
          <mxGeometry x="690" y="580" width="120" height="50" as="geometry" />
        </mxCell>
        <mxCell id="nBjYFMRs9gw0fjaSKA7M-35" value="" style="rounded=0;whiteSpace=wrap;html=1;" vertex="1" parent="1">
          <mxGeometry x="690" y="630" width="220" height="100" as="geometry" />
        </mxCell>
        <mxCell id="nBjYFMRs9gw0fjaSKA7M-40" value="Demo4 class Object" style="rounded=0;whiteSpace=wrap;html=1;fontSize=17;" vertex="1" parent="1">
          <mxGeometry x="450" y="480" width="220" height="40" as="geometry" />
        </mxCell>
        <mxCell id="nBjYFMRs9gw0fjaSKA7M-41" value="instance : void Print() { }" style="rounded=0;whiteSpace=wrap;html=1;fontSize=19;" vertex="1" parent="1">
          <mxGeometry x="690" y="680" width="220" height="50" as="geometry" />
        </mxCell>
        <mxCell id="nBjYFMRs9gw0fjaSKA7M-43" value="Demo4( ){ }" style="rounded=0;whiteSpace=wrap;html=1;fontSize=22;" vertex="1" parent="1">
          <mxGeometry x="690" y="630" width="220" height="50" as="geometry" />
        </mxCell>
        <mxCell id="nBjYFMRs9gw0fjaSKA7M-44" value="" style="rounded=0;whiteSpace=wrap;html=1;fillColor=#F81E2C;strokeColor=#b85450;fillStyle=hatch;" vertex="1" parent="1">
          <mxGeometry x="40" y="600" width="200" height="170" as="geometry" />
        </mxCell>
        <mxCell id="nBjYFMRs9gw0fjaSKA7M-45" value="" style="rounded=0;whiteSpace=wrap;html=1;" vertex="1" parent="1">
          <mxGeometry x="860" y="420" width="120" height="60" as="geometry" />
        </mxCell>
        <mxCell id="nBjYFMRs9gw0fjaSKA7M-47" value="Demo4( )" style="rounded=0;whiteSpace=wrap;html=1;fontSize=21;" vertex="1" parent="1">
          <mxGeometry x="-100" y="655" width="120" height="60" as="geometry" />
        </mxCell>
        <mxCell id="nBjYFMRs9gw0fjaSKA7M-49" style="edgeStyle=orthogonalEdgeStyle;rounded=0;orthogonalLoop=1;jettySize=auto;html=1;" edge="1" parent="1" source="nBjYFMRs9gw0fjaSKA7M-48" target="nBjYFMRs9gw0fjaSKA7M-30">
          <mxGeometry relative="1" as="geometry">
            <Array as="points">
              <mxPoint x="465" y="625" />
              <mxPoint x="465" y="605" />
            </Array>
          </mxGeometry>
        </mxCell>
        <mxCell id="nBjYFMRs9gw0fjaSKA7M-48" value="this =&amp;nbsp;0XAB013" style="rounded=0;whiteSpace=wrap;html=1;fontSize=21;fillColor=#ffe6cc;strokeColor=#d79b00;" vertex="1" parent="1">
          <mxGeometry x="40" y="600" width="200" height="50" as="geometry" />
        </mxCell>
        <mxCell id="nBjYFMRs9gw0fjaSKA7M-50" value="" style="rounded=0;whiteSpace=wrap;html=1;fillColor=#E72350;strokeColor=#9673a6;fillStyle=hatch;" vertex="1" parent="1">
          <mxGeometry x="40" y="430" width="200" height="170" as="geometry" />
        </mxCell>
        <mxCell id="nBjYFMRs9gw0fjaSKA7M-51" value="super()" style="rounded=0;whiteSpace=wrap;html=1;fontSize=21;" vertex="1" parent="1">
          <mxGeometry x="-90" y="470" width="120" height="60" as="geometry" />
        </mxCell>
        <mxCell id="nBjYFMRs9gw0fjaSKA7M-52" value="" style="rounded=0;whiteSpace=wrap;html=1;fillColor=#F8113F;strokeColor=#b85450;fillStyle=hatch;" vertex="1" parent="1">
          <mxGeometry x="40" y="260" width="200" height="170" as="geometry" />
        </mxCell>
        <mxCell id="nBjYFMRs9gw0fjaSKA7M-54" value="0XAB013" style="rounded=0;whiteSpace=wrap;html=1;fontSize=21;" vertex="1" parent="1">
          <mxGeometry x="40" y="870" width="200" height="50" as="geometry" />
        </mxCell>
        <mxCell id="nBjYFMRs9gw0fjaSKA7M-56" style="edgeStyle=orthogonalEdgeStyle;rounded=0;orthogonalLoop=1;jettySize=auto;html=1;entryX=0;entryY=0.25;entryDx=0;entryDy=0;" edge="1" parent="1" source="nBjYFMRs9gw0fjaSKA7M-55" target="nBjYFMRs9gw0fjaSKA7M-54">
          <mxGeometry relative="1" as="geometry">
            <Array as="points">
              <mxPoint x="110" y="955" />
              <mxPoint x="-40" y="955" />
              <mxPoint x="-40" y="883" />
            </Array>
          </mxGeometry>
        </mxCell>
        <mxCell id="nBjYFMRs9gw0fjaSKA7M-55" value="temporiily stroes" style="rounded=0;whiteSpace=wrap;html=1;fontSize=20;" vertex="1" parent="1">
          <mxGeometry x="50" y="990" width="120" height="60" as="geometry" />
        </mxCell>
        <mxCell id="nBjYFMRs9gw0fjaSKA7M-57" value="0XAB013 .print()" style="rounded=0;whiteSpace=wrap;html=1;fontSize=21;" vertex="1" parent="1">
          <mxGeometry x="-160" y="315" width="180" height="60" as="geometry" />
        </mxCell>
      </root>
    </mxGraphModel>
  </diagram>
  <diagram id="rYf7wW76vTTvXHUUMlvA" name="Page-2">
    <mxGraphModel dx="2643" dy="1054" grid="1" gridSize="10" guides="1" tooltips="1" connect="1" arrows="1" fold="1" page="1" pageScale="1" pageWidth="850" pageHeight="1100" math="0" shadow="0">
      <root>
        <mxCell id="0" />
        <mxCell id="1" parent="0" />
        <mxCell id="86ladF24RA2nOPvJhTOl-1" value="" style="rounded=0;whiteSpace=wrap;html=1;" vertex="1" parent="1">
          <mxGeometry x="40" y="160" width="1030" height="1010" as="geometry" />
        </mxCell>
        <mxCell id="86ladF24RA2nOPvJhTOl-2" value="" style="rounded=0;whiteSpace=wrap;html=1;" vertex="1" parent="1">
          <mxGeometry x="240" y="160" width="1320" height="380" as="geometry" />
        </mxCell>
        <mxCell id="86ladF24RA2nOPvJhTOl-3" value="" style="rounded=0;whiteSpace=wrap;html=1;" vertex="1" parent="1">
          <mxGeometry x="240" y="540" width="1320" height="630" as="geometry" />
        </mxCell>
        <mxCell id="86ladF24RA2nOPvJhTOl-4" value="" style="rounded=0;whiteSpace=wrap;html=1;" vertex="1" parent="1">
          <mxGeometry x="40" y="870" width="200" height="50" as="geometry" />
        </mxCell>
        <mxCell id="86ladF24RA2nOPvJhTOl-5" style="edgeStyle=orthogonalEdgeStyle;rounded=0;orthogonalLoop=1;jettySize=auto;html=1;entryX=0;entryY=0.5;entryDx=0;entryDy=0;dashed=1;strokeWidth=2;" edge="1" parent="1" source="86ladF24RA2nOPvJhTOl-6" target="86ladF24RA2nOPvJhTOl-10">
          <mxGeometry relative="1" as="geometry" />
        </mxCell>
        <mxCell id="86ladF24RA2nOPvJhTOl-6" value="String[ ]&amp;nbsp; args =&amp;nbsp;0XAC67" style="rounded=0;whiteSpace=wrap;html=1;fontSize=17;" vertex="1" parent="1">
          <mxGeometry x="40" y="820" width="200" height="50" as="geometry" />
        </mxCell>
        <mxCell id="86ladF24RA2nOPvJhTOl-7" style="edgeStyle=orthogonalEdgeStyle;rounded=0;orthogonalLoop=1;jettySize=auto;html=1;entryX=0;entryY=0.5;entryDx=0;entryDy=0;dashed=1;strokeWidth=2;" edge="1" parent="1" source="86ladF24RA2nOPvJhTOl-8" target="86ladF24RA2nOPvJhTOl-14">
          <mxGeometry relative="1" as="geometry">
            <Array as="points">
              <mxPoint x="300" y="795" />
              <mxPoint x="300" y="205" />
            </Array>
          </mxGeometry>
        </mxCell>
        <mxCell id="86ladF24RA2nOPvJhTOl-8" value="RCP =&amp;nbsp;0XAB987" style="rounded=0;whiteSpace=wrap;html=1;fontSize=21;" vertex="1" parent="1">
          <mxGeometry x="40" y="770" width="200" height="50" as="geometry" />
        </mxCell>
        <mxCell id="86ladF24RA2nOPvJhTOl-9" value="" style="rounded=0;whiteSpace=wrap;html=1;" vertex="1" parent="1">
          <mxGeometry x="300" y="1030" width="30" height="60" as="geometry" />
        </mxCell>
        <mxCell id="86ladF24RA2nOPvJhTOl-10" value="0XAC67" style="rounded=0;whiteSpace=wrap;html=1;fillColor=#fff2cc;strokeColor=#d6b656;fontSize=20;fontStyle=1" vertex="1" parent="1">
          <mxGeometry x="300" y="1000" width="100" height="30" as="geometry" />
        </mxCell>
        <mxCell id="86ladF24RA2nOPvJhTOl-11" style="edgeStyle=orthogonalEdgeStyle;rounded=0;orthogonalLoop=1;jettySize=auto;html=1;entryX=0.5;entryY=0;entryDx=0;entryDy=0;" edge="1" parent="1" source="86ladF24RA2nOPvJhTOl-12" target="86ladF24RA2nOPvJhTOl-14">
          <mxGeometry relative="1" as="geometry">
            <Array as="points">
              <mxPoint x="1750" y="755" />
              <mxPoint x="1750" y="60" />
              <mxPoint x="510" y="60" />
            </Array>
            <mxPoint x="690" y="170" as="targetPoint" />
          </mxGeometry>
        </mxCell>
        <mxCell id="86ladF24RA2nOPvJhTOl-12" value="Demo5.class" style="rounded=0;whiteSpace=wrap;html=1;fontSize=23;" vertex="1" parent="1">
          <mxGeometry x="1680" y="705" width="170" height="170" as="geometry" />
        </mxCell>
        <mxCell id="86ladF24RA2nOPvJhTOl-13" value="" style="rounded=0;whiteSpace=wrap;html=1;" vertex="1" parent="1">
          <mxGeometry x="450" y="230" width="220" height="290" as="geometry" />
        </mxCell>
        <mxCell id="86ladF24RA2nOPvJhTOl-14" value="0XAB987" style="rounded=0;whiteSpace=wrap;html=1;fontSize=21;fontStyle=1;fillColor=#ffe6cc;strokeColor=#d79b00;" vertex="1" parent="1">
          <mxGeometry x="450" y="180" width="120" height="50" as="geometry" />
        </mxCell>
        <mxCell id="86ladF24RA2nOPvJhTOl-15" value="instance : int x =0;" style="rounded=0;whiteSpace=wrap;html=1;fontSize=22;fillColor=#f8cecc;strokeColor=#b85450;" vertex="1" parent="1">
          <mxGeometry x="450" y="230" width="220" height="50" as="geometry" />
        </mxCell>
        <mxCell id="86ladF24RA2nOPvJhTOl-16" value="instance : void Print() { }" style="rounded=0;whiteSpace=wrap;html=1;fontSize=19;fillColor=#f8cecc;strokeColor=#b85450;" vertex="1" parent="1">
          <mxGeometry x="450" y="280" width="220" height="50" as="geometry" />
        </mxCell>
        <mxCell id="86ladF24RA2nOPvJhTOl-17" value="Demo4(int x ){ }" style="rounded=0;whiteSpace=wrap;html=1;fontSize=22;fillColor=#f8cecc;strokeColor=#b85450;" vertex="1" parent="1">
          <mxGeometry x="450" y="330" width="220" height="50" as="geometry" />
        </mxCell>
        <mxCell id="86ladF24RA2nOPvJhTOl-18" value="PSVM" style="ellipse;whiteSpace=wrap;html=1;fontSize=22;" vertex="1" parent="1">
          <mxGeometry x="495" y="390" width="120" height="80" as="geometry" />
        </mxCell>
        <mxCell id="86ladF24RA2nOPvJhTOl-19" style="edgeStyle=orthogonalEdgeStyle;rounded=0;orthogonalLoop=1;jettySize=auto;html=1;entryX=1;entryY=0.5;entryDx=0;entryDy=0;dashed=1;strokeWidth=3;" edge="1" parent="1" source="86ladF24RA2nOPvJhTOl-20" target="86ladF24RA2nOPvJhTOl-22">
          <mxGeometry relative="1" as="geometry">
            <Array as="points">
              <mxPoint x="760" y="500" />
            </Array>
          </mxGeometry>
        </mxCell>
        <mxCell id="86ladF24RA2nOPvJhTOl-76" style="edgeStyle=orthogonalEdgeStyle;rounded=0;orthogonalLoop=1;jettySize=auto;html=1;entryX=1;entryY=0.5;entryDx=0;entryDy=0;" edge="1" parent="1" source="86ladF24RA2nOPvJhTOl-20" target="86ladF24RA2nOPvJhTOl-29">
          <mxGeometry relative="1" as="geometry" />
        </mxCell>
        <mxCell id="86ladF24RA2nOPvJhTOl-20" value="0XAB013" style="rounded=0;whiteSpace=wrap;html=1;fontSize=21;fontStyle=1;fillColor=#ffe6cc;strokeColor=#d79b00;" vertex="1" parent="1">
          <mxGeometry x="570" y="580" width="120" height="50" as="geometry" />
        </mxCell>
        <mxCell id="86ladF24RA2nOPvJhTOl-21" value="" style="rounded=0;whiteSpace=wrap;html=1;" vertex="1" parent="1">
          <mxGeometry x="570" y="635" width="220" height="100" as="geometry" />
        </mxCell>
        <mxCell id="86ladF24RA2nOPvJhTOl-22" value="Demo5 class Object" style="rounded=0;whiteSpace=wrap;html=1;fontSize=19;" vertex="1" parent="1">
          <mxGeometry x="450" y="480" width="220" height="40" as="geometry" />
        </mxCell>
        <mxCell id="86ladF24RA2nOPvJhTOl-23" value="instance : void Print() { }" style="rounded=0;whiteSpace=wrap;html=1;fontSize=19;" vertex="1" parent="1">
          <mxGeometry x="570" y="730" width="220" height="50" as="geometry" />
        </mxCell>
        <mxCell id="86ladF24RA2nOPvJhTOl-24" value="Demo5(int x = 5 ){ }" style="rounded=0;whiteSpace=wrap;html=1;fontSize=22;" vertex="1" parent="1">
          <mxGeometry x="570" y="630" width="220" height="50" as="geometry" />
        </mxCell>
        <mxCell id="86ladF24RA2nOPvJhTOl-25" value="" style="rounded=0;whiteSpace=wrap;html=1;fillColor=#F81E2C;strokeColor=#b85450;fillStyle=hatch;" vertex="1" parent="1">
          <mxGeometry x="40" y="580" width="200" height="190" as="geometry" />
        </mxCell>
        <mxCell id="86ladF24RA2nOPvJhTOl-27" value="Demo5( )" style="rounded=0;whiteSpace=wrap;html=1;fontSize=21;" vertex="1" parent="1">
          <mxGeometry x="-100" y="655" width="120" height="60" as="geometry" />
        </mxCell>
        <mxCell id="86ladF24RA2nOPvJhTOl-70" style="edgeStyle=orthogonalEdgeStyle;rounded=0;orthogonalLoop=1;jettySize=auto;html=1;entryX=0.717;entryY=-0.002;entryDx=0;entryDy=0;entryPerimeter=0;" edge="1" parent="1" source="86ladF24RA2nOPvJhTOl-29" target="86ladF24RA2nOPvJhTOl-67">
          <mxGeometry relative="1" as="geometry" />
        </mxCell>
        <mxCell id="86ladF24RA2nOPvJhTOl-29" value="this =&amp;nbsp;0XAB013" style="rounded=0;whiteSpace=wrap;html=1;fontSize=21;fillColor=#ffe6cc;strokeColor=#d79b00;" vertex="1" parent="1">
          <mxGeometry x="40" y="580" width="200" height="50" as="geometry" />
        </mxCell>
        <mxCell id="86ladF24RA2nOPvJhTOl-33" value="ref1 = 0XAB013" style="rounded=0;whiteSpace=wrap;html=1;fontSize=21;" vertex="1" parent="1">
          <mxGeometry x="40" y="870" width="200" height="50" as="geometry" />
        </mxCell>
        <mxCell id="86ladF24RA2nOPvJhTOl-36" value="instance : int x = 5" style="rounded=0;whiteSpace=wrap;html=1;fontSize=19;" vertex="1" parent="1">
          <mxGeometry x="570" y="680" width="220" height="50" as="geometry" />
        </mxCell>
        <mxCell id="86ladF24RA2nOPvJhTOl-37" style="edgeStyle=orthogonalEdgeStyle;rounded=0;orthogonalLoop=1;jettySize=auto;html=1;exitX=0.25;exitY=1;exitDx=0;exitDy=0;entryX=0.333;entryY=0.8;entryDx=0;entryDy=0;entryPerimeter=0;" edge="1" parent="1" source="86ladF24RA2nOPvJhTOl-20" target="86ladF24RA2nOPvJhTOl-20">
          <mxGeometry relative="1" as="geometry" />
        </mxCell>
        <mxCell id="86ladF24RA2nOPvJhTOl-50" style="edgeStyle=orthogonalEdgeStyle;rounded=0;orthogonalLoop=1;jettySize=auto;html=1;dashed=1;strokeWidth=3;" edge="1" parent="1" source="86ladF24RA2nOPvJhTOl-38">
          <mxGeometry relative="1" as="geometry">
            <mxPoint x="680" y="500" as="targetPoint" />
            <Array as="points">
              <mxPoint x="1290" y="975" />
              <mxPoint x="1290" y="500" />
            </Array>
          </mxGeometry>
        </mxCell>
        <mxCell id="86ladF24RA2nOPvJhTOl-77" style="edgeStyle=orthogonalEdgeStyle;rounded=0;orthogonalLoop=1;jettySize=auto;html=1;entryX=1;entryY=0.5;entryDx=0;entryDy=0;" edge="1" parent="1" source="86ladF24RA2nOPvJhTOl-38" target="86ladF24RA2nOPvJhTOl-53">
          <mxGeometry relative="1" as="geometry">
            <Array as="points">
              <mxPoint x="380" y="955" />
              <mxPoint x="380" y="285" />
            </Array>
          </mxGeometry>
        </mxCell>
        <mxCell id="86ladF24RA2nOPvJhTOl-38" value="0XAB015" style="rounded=0;whiteSpace=wrap;html=1;fontSize=21;fontStyle=1;fillColor=#ffe6cc;strokeColor=#d79b00;" vertex="1" parent="1">
          <mxGeometry x="580" y="930" width="120" height="50" as="geometry" />
        </mxCell>
        <mxCell id="86ladF24RA2nOPvJhTOl-39" value="instance : int x = 15" style="rounded=0;whiteSpace=wrap;html=1;fontSize=19;" vertex="1" parent="1">
          <mxGeometry x="580" y="1030" width="220" height="50" as="geometry" />
        </mxCell>
        <mxCell id="86ladF24RA2nOPvJhTOl-40" value="Demo5(int x ){ }" style="rounded=0;whiteSpace=wrap;html=1;fontSize=22;" vertex="1" parent="1">
          <mxGeometry x="580" y="980" width="220" height="50" as="geometry" />
        </mxCell>
        <mxCell id="86ladF24RA2nOPvJhTOl-41" value="instance : void Print() { }" style="rounded=0;whiteSpace=wrap;html=1;fontSize=19;" vertex="1" parent="1">
          <mxGeometry x="580" y="1080" width="220" height="50" as="geometry" />
        </mxCell>
        <mxCell id="86ladF24RA2nOPvJhTOl-42" value="ref2 = 0XAB014" style="rounded=0;whiteSpace=wrap;html=1;fontSize=21;" vertex="1" parent="1">
          <mxGeometry x="40" y="920" width="200" height="50" as="geometry" />
        </mxCell>
        <mxCell id="86ladF24RA2nOPvJhTOl-43" value="instance : int x = 10" style="rounded=0;whiteSpace=wrap;html=1;fontSize=19;" vertex="1" parent="1">
          <mxGeometry x="950" y="850" width="220" height="50" as="geometry" />
        </mxCell>
        <mxCell id="86ladF24RA2nOPvJhTOl-44" value="instance : void Print() { }" style="rounded=0;whiteSpace=wrap;html=1;fontSize=19;" vertex="1" parent="1">
          <mxGeometry x="950" y="900" width="220" height="50" as="geometry" />
        </mxCell>
        <mxCell id="86ladF24RA2nOPvJhTOl-45" value="Demo5(int x = 10 ){ }" style="rounded=0;whiteSpace=wrap;html=1;fontSize=22;" vertex="1" parent="1">
          <mxGeometry x="950" y="800" width="220" height="50" as="geometry" />
        </mxCell>
        <mxCell id="86ladF24RA2nOPvJhTOl-49" style="edgeStyle=orthogonalEdgeStyle;rounded=0;orthogonalLoop=1;jettySize=auto;html=1;entryX=1;entryY=0.5;entryDx=0;entryDy=0;dashed=1;strokeWidth=3;" edge="1" parent="1" source="86ladF24RA2nOPvJhTOl-46" target="86ladF24RA2nOPvJhTOl-22">
          <mxGeometry relative="1" as="geometry">
            <Array as="points">
              <mxPoint x="1010" y="500" />
            </Array>
          </mxGeometry>
        </mxCell>
        <mxCell id="86ladF24RA2nOPvJhTOl-78" style="edgeStyle=orthogonalEdgeStyle;rounded=0;orthogonalLoop=1;jettySize=auto;html=1;entryX=0;entryY=0.75;entryDx=0;entryDy=0;" edge="1" parent="1" source="86ladF24RA2nOPvJhTOl-46" target="86ladF24RA2nOPvJhTOl-2">
          <mxGeometry relative="1" as="geometry">
            <Array as="points">
              <mxPoint x="1010" y="820" />
              <mxPoint x="380" y="820" />
              <mxPoint x="380" y="445" />
            </Array>
          </mxGeometry>
        </mxCell>
        <mxCell id="86ladF24RA2nOPvJhTOl-46" value="0XAB014" style="rounded=0;whiteSpace=wrap;html=1;fontSize=21;fontStyle=1;fillColor=#ffe6cc;strokeColor=#d79b00;" vertex="1" parent="1">
          <mxGeometry x="950" y="750" width="120" height="50" as="geometry" />
        </mxCell>
        <mxCell id="86ladF24RA2nOPvJhTOl-69" style="edgeStyle=orthogonalEdgeStyle;rounded=0;orthogonalLoop=1;jettySize=auto;html=1;entryX=0.55;entryY=-0.013;entryDx=0;entryDy=0;entryPerimeter=0;" edge="1" parent="1" source="86ladF24RA2nOPvJhTOl-51" target="86ladF24RA2nOPvJhTOl-67">
          <mxGeometry relative="1" as="geometry">
            <mxPoint x="-450" y="640" as="targetPoint" />
          </mxGeometry>
        </mxCell>
        <mxCell id="86ladF24RA2nOPvJhTOl-51" value="this =&amp;nbsp;0XAB014" style="rounded=0;whiteSpace=wrap;html=1;fontSize=21;fillColor=#ffe6cc;strokeColor=#d79b00;" vertex="1" parent="1">
          <mxGeometry x="40" y="430" width="200" height="50" as="geometry" />
        </mxCell>
        <mxCell id="86ladF24RA2nOPvJhTOl-52" value="" style="rounded=0;whiteSpace=wrap;html=1;fillColor=#F81E2C;strokeColor=#b85450;fillStyle=hatch;" vertex="1" parent="1">
          <mxGeometry x="40" y="480" width="200" height="100" as="geometry" />
        </mxCell>
        <mxCell id="86ladF24RA2nOPvJhTOl-68" style="edgeStyle=orthogonalEdgeStyle;rounded=0;orthogonalLoop=1;jettySize=auto;html=1;entryX=0.409;entryY=-0.035;entryDx=0;entryDy=0;entryPerimeter=0;" edge="1" parent="1" source="86ladF24RA2nOPvJhTOl-53" target="86ladF24RA2nOPvJhTOl-67">
          <mxGeometry relative="1" as="geometry" />
        </mxCell>
        <mxCell id="86ladF24RA2nOPvJhTOl-53" value="this =&amp;nbsp;&amp;nbsp;0XAB015" style="rounded=0;whiteSpace=wrap;html=1;fontSize=21;fillColor=#ffe6cc;strokeColor=#d79b00;" vertex="1" parent="1">
          <mxGeometry x="40" y="260" width="200" height="50" as="geometry" />
        </mxCell>
        <mxCell id="86ladF24RA2nOPvJhTOl-54" value="" style="rounded=0;whiteSpace=wrap;html=1;fillColor=#F81E2C;strokeColor=#b85450;fillStyle=hatch;" vertex="1" parent="1">
          <mxGeometry x="40" y="310" width="200" height="120" as="geometry" />
        </mxCell>
        <mxCell id="86ladF24RA2nOPvJhTOl-55" value="ref3 = 0XAB015" style="rounded=0;whiteSpace=wrap;html=1;fontSize=21;" vertex="1" parent="1">
          <mxGeometry x="40" y="970" width="200" height="50" as="geometry" />
        </mxCell>
        <mxCell id="86ladF24RA2nOPvJhTOl-62" value="Demo5( )" style="rounded=0;whiteSpace=wrap;html=1;fontSize=21;" vertex="1" parent="1">
          <mxGeometry x="-120" y="510" width="120" height="60" as="geometry" />
        </mxCell>
        <mxCell id="86ladF24RA2nOPvJhTOl-63" value="Demo5( )" style="rounded=0;whiteSpace=wrap;html=1;fontSize=21;" vertex="1" parent="1">
          <mxGeometry x="-120" y="320" width="120" height="60" as="geometry" />
        </mxCell>
        <mxCell id="86ladF24RA2nOPvJhTOl-64" value="int x = 5" style="rounded=0;whiteSpace=wrap;html=1;fontSize=21;fillColor=#ffe6cc;strokeColor=#d79b00;" vertex="1" parent="1">
          <mxGeometry x="40" y="630" width="200" height="50" as="geometry" />
        </mxCell>
        <mxCell id="86ladF24RA2nOPvJhTOl-65" value="int x = 10" style="rounded=0;whiteSpace=wrap;html=1;fontSize=21;fillColor=#ffe6cc;strokeColor=#d79b00;" vertex="1" parent="1">
          <mxGeometry x="40" y="480" width="200" height="50" as="geometry" />
        </mxCell>
        <mxCell id="86ladF24RA2nOPvJhTOl-66" value="int x = 15" style="rounded=0;whiteSpace=wrap;html=1;fontSize=21;fillColor=#ffe6cc;strokeColor=#d79b00;" vertex="1" parent="1">
          <mxGeometry x="40" y="310" width="200" height="50" as="geometry" />
        </mxCell>
        <mxCell id="86ladF24RA2nOPvJhTOl-71" style="edgeStyle=orthogonalEdgeStyle;rounded=0;orthogonalLoop=1;jettySize=auto;html=1;entryX=0;entryY=0.5;entryDx=0;entryDy=0;" edge="1" parent="1" source="86ladF24RA2nOPvJhTOl-67" target="86ladF24RA2nOPvJhTOl-33">
          <mxGeometry relative="1" as="geometry" />
        </mxCell>
        <mxCell id="86ladF24RA2nOPvJhTOl-72" style="edgeStyle=orthogonalEdgeStyle;rounded=0;orthogonalLoop=1;jettySize=auto;html=1;entryX=0;entryY=0.5;entryDx=0;entryDy=0;" edge="1" parent="1" source="86ladF24RA2nOPvJhTOl-67" target="86ladF24RA2nOPvJhTOl-42">
          <mxGeometry relative="1" as="geometry">
            <Array as="points">
              <mxPoint x="-220" y="708" />
              <mxPoint x="-220" y="945" />
            </Array>
          </mxGeometry>
        </mxCell>
        <mxCell id="86ladF24RA2nOPvJhTOl-73" style="edgeStyle=orthogonalEdgeStyle;rounded=0;orthogonalLoop=1;jettySize=auto;html=1;entryX=0;entryY=0.5;entryDx=0;entryDy=0;" edge="1" parent="1" source="86ladF24RA2nOPvJhTOl-67" target="86ladF24RA2nOPvJhTOl-55">
          <mxGeometry relative="1" as="geometry">
            <Array as="points">
              <mxPoint x="-290" y="708" />
              <mxPoint x="-290" y="995" />
            </Array>
          </mxGeometry>
        </mxCell>
        <mxCell id="86ladF24RA2nOPvJhTOl-67" value="Distroy these frames after returning this memory location" style="rounded=0;whiteSpace=wrap;html=1;fontSize=19;" vertex="1" parent="1">
          <mxGeometry x="-580" y="650" width="240" height="115" as="geometry" />
        </mxCell>
        <mxCell id="86ladF24RA2nOPvJhTOl-79" value="Main Thread" style="shape=step;perimeter=stepPerimeter;whiteSpace=wrap;html=1;fixedSize=1;fontSize=20;" vertex="1" parent="1">
          <mxGeometry x="60" y="70" width="170" height="80" as="geometry" />
        </mxCell>
      </root>
    </mxGraphModel>
  </diagram>
</mxfile>
